<?xml version="1.0" standalone="no"?>
<!DOCTYPE svg PUBLIC "-//W3C//DTD SVG 20010904//EN"
 "http://www.w3.org/TR/2001/REC-SVG-20010904/DTD/svg10.dtd">
<svg version="1.0" xmlns="http://www.w3.org/2000/svg"
 width="500.000000pt" height="500.000000pt" viewBox="0 0 500.000000 500.000000"
 preserveAspectRatio="xMidYMid meet">
<metadata>
Created by potrace 1.14, written by Peter Selinger 2001-2017
</metadata>
<g transform="translate(0.000000,500.000000) scale(0.100000,-0.100000)"
fill="#000000" stroke="none">
<path d="M2310 4989 c0 -3 -19 -5 -42 -5 -55 -1 -135 -11 -228 -29 -14 -3 -38
-8 -55 -11 -16 -2 -38 -7 -47 -10 -9 -3 -27 -7 -40 -9 -87 -17 -297 -89 -425
-146 -169 -75 -401 -217 -534 -327 -83 -69 -120 -103 -217 -202 -62 -63 -118
-122 -125 -130 -7 -9 -28 -36 -47 -60 -19 -25 -38 -46 -42 -48 -5 -2 -8 -10
-8 -17 0 -7 -4 -15 -9 -17 -11 -4 -127 -183 -168 -258 -44 -79 -67 -124 -68
-130 -1 -3 -10 -25 -22 -50 -46 -101 -65 -146 -69 -170 -3 -13 -9 -29 -13 -35
-7 -8 -22 -59 -23 -75 0 -3 -4 -13 -9 -23 -6 -10 -12 -30 -14 -45 -2 -15 -11
-52 -20 -82 -26 -94 -46 -215 -64 -379 -9 -85 -7 -396 3 -456 3 -22 8 -63 11
-90 3 -28 10 -75 15 -105 6 -30 13 -66 15 -80 2 -14 7 -35 10 -47 3 -13 7 -31
9 -41 2 -9 9 -37 16 -62 7 -25 13 -49 15 -55 1 -5 7 -23 13 -38 7 -16 12 -32
12 -37 0 -5 14 -44 31 -87 17 -43 31 -82 33 -88 7 -33 161 -328 183 -352 6 -7
15 -22 18 -33 3 -11 11 -20 16 -20 5 0 9 -5 9 -10 0 -6 5 -16 10 -23 6 -7 39
-50 74 -97 125 -169 299 -346 451 -460 33 -25 62 -48 65 -51 13 -15 166 -113
255 -162 187 -104 408 -192 605 -239 123 -29 122 -29 155 -33 17 -2 30 -4 30
-5 0 -1 14 -3 30 -5 17 -2 44 -7 62 -10 92 -17 460 -24 558 -10 22 2 60 7 85
10 25 2 54 6 65 9 11 2 40 7 65 12 47 8 55 10 68 14 4 1 10 2 13 2 4 -1 49 10
100 24 52 14 99 27 104 28 6 2 17 6 25 9 8 3 47 17 85 30 39 14 84 31 100 38
17 7 32 13 35 13 43 10 369 191 435 243 17 13 35 27 40 31 15 10 88 65 100 74
64 49 231 210 308 298 82 95 147 176 147 185 0 3 8 15 18 26 11 10 25 32 33
47 8 15 16 29 19 32 50 47 291 550 263 550 -3 0 -1 6 4 13 8 9 33 86 38 117 1
3 7 25 14 50 17 59 22 79 26 115 2 17 5 31 6 33 4 5 21 110 24 152 2 14 3 25
4 25 13 0 18 424 7 535 -12 113 -26 209 -40 270 -3 14 -8 36 -10 50 -3 14 -13
52 -22 85 -9 33 -17 65 -19 70 -9 39 -19 71 -25 80 -3 6 -12 30 -20 55 -7 25
-17 49 -22 55 -4 5 -8 15 -8 22 0 20 -123 273 -164 337 -20 31 -36 61 -36 66
0 6 -4 10 -10 10 -5 0 -10 5 -10 10 0 10 -36 67 -50 80 -3 3 -17 21 -30 40
-13 19 -27 37 -30 40 -3 3 -18 22 -33 42 -58 78 -192 220 -297 313 -71 64
-188 155 -199 155 -5 0 -11 4 -13 9 -4 11 -144 101 -157 101 -6 0 -11 4 -11 8
0 5 -24 21 -54 35 -30 15 -58 32 -61 37 -3 6 -15 10 -25 10 -10 0 -20 4 -22 8
-7 18 -355 152 -435 168 -12 2 -34 9 -48 14 -14 5 -25 7 -25 5 0 -2 -12 0 -26
6 -15 5 -43 12 -63 14 -20 3 -47 8 -61 11 -14 3 -36 7 -50 9 -91 13 -130 18
-165 21 -22 1 -40 3 -40 4 0 1 -82 3 -183 3 -100 1 -182 -1 -182 -4z m400
-383 c69 -9 98 -13 130 -19 14 -3 43 -8 65 -12 22 -4 60 -13 85 -20 25 -7 47
-13 50 -13 12 0 95 -24 119 -34 14 -6 33 -12 41 -14 29 -6 205 -82 265 -114
137 -74 298 -179 338 -221 10 -11 22 -19 27 -19 6 0 70 -60 143 -132 119 -118
271 -304 308 -377 8 -14 26 -44 40 -66 38 -57 131 -255 159 -335 7 -19 16 -44
20 -55 4 -11 13 -40 20 -65 7 -25 16 -56 21 -70 5 -14 11 -40 14 -59 3 -19 8
-37 10 -41 2 -3 6 -28 10 -54 3 -27 7 -52 10 -55 10 -17 20 -180 19 -326 -1
-173 -6 -236 -30 -360 -8 -44 -17 -89 -19 -100 -2 -11 -4 -20 -5 -20 -1 0 -3
-7 -5 -15 -8 -43 -42 -154 -67 -220 -16 -41 -30 -79 -31 -84 -5 -22 -127 -256
-162 -311 -98 -152 -172 -244 -311 -382 -211 -209 -443 -358 -741 -477 -35
-13 -63 -23 -63 -20 0 2 -13 -2 -30 -11 -16 -9 -30 -13 -30 -10 0 3 -17 -2
-37 -10 -21 -7 -74 -21 -118 -30 -44 -8 -91 -18 -105 -20 -29 -6 -81 -13 -165
-23 -80 -9 -333 -8 -420 3 -38 5 -79 9 -90 11 -19 2 -43 6 -105 19 -14 3 -37
7 -52 10 -15 3 -40 10 -55 16 -15 6 -30 10 -33 10 -3 -1 -30 7 -60 16 -30 9
-59 17 -65 19 -5 1 -23 7 -40 14 -16 6 -32 12 -35 12 -12 3 -122 53 -195 90
-134 67 -277 158 -346 220 -10 10 -21 18 -24 18 -7 0 -61 47 -148 130 -118
111 -287 325 -356 450 -53 97 -111 214 -111 225 0 7 -4 15 -10 17 -5 2 -11 12
-13 23 -2 11 -9 34 -16 50 -34 82 -96 300 -106 370 -1 11 -5 36 -9 55 -26 142
-27 512 -1 640 2 14 7 40 10 57 18 109 76 302 130 433 26 62 112 234 128 255
4 6 30 46 58 89 28 43 56 85 62 91 7 7 21 25 32 41 55 78 224 254 316 329 93
76 119 95 127 95 6 0 12 4 14 8 10 26 215 141 393 223 28 13 157 60 175 64 8
2 46 13 83 24 38 11 81 22 95 25 52 10 87 17 102 21 15 4 61 10 190 24 77 8
322 6 400 -3z"/>
<path d="M2017 4523 c-4 -3 -17 -7 -30 -9 -33 -3 -81 -16 -157 -42 -8 -3 -18
-4 -22 -4 -7 2 -13 -90 -8 -113 1 -5 4 -45 5 -87 2 -65 -1 -81 -17 -100 -29
-34 -169 -187 -203 -224 -16 -17 -66 -70 -110 -119 -163 -178 -181 -195 -190
-187 -6 5 -32 15 -59 22 -178 48 -363 -35 -442 -199 -29 -61 -34 -81 -35 -166
-1 -112 29 -200 96 -273 34 -38 135 -110 135 -96 0 4 6 1 13 -5 14 -11 166
-32 180 -24 4 2 20 6 35 9 43 8 132 54 173 91 103 93 148 261 108 397 -21 69
-26 59 81 174 l75 81 39 -35 38 -35 -10 -51 c-21 -110 28 -220 119 -265 55
-27 91 -32 148 -20 48 10 54 14 110 68 87 84 80 257 -13 336 -62 52 -151 70
-220 43 -27 -10 -33 -8 -68 27 -21 20 -38 40 -38 43 1 5 23 30 184 203 50 55
93 109 96 120 7 27 5 436 -2 442 -2 3 -8 2 -11 -2z m-45 -987 c53 -16 57 -99
6 -127 -43 -24 -73 -22 -107 10 -38 36 -39 64 -3 100 28 29 52 32 104 17z
m-772 -134 c84 -53 95 -144 26 -213 -68 -68 -184 -47 -233 41 -39 71 -1 154
84 184 43 15 86 11 123 -12z"/>
<path d="M2969 4513 c-2 -13 -10 -333 -10 -388 1 -27 5 -51 11 -53 5 -2 10 -9
10 -15 0 -6 18 -28 40 -48 22 -21 40 -40 40 -42 0 -3 19 -25 43 -49 23 -25 65
-70 94 -101 l51 -56 -39 -39 -39 -40 -47 12 c-58 15 -134 4 -178 -27 -37 -25
-75 -69 -68 -79 2 -5 0 -8 -5 -8 -15 0 -30 -74 -26 -127 9 -133 101 -217 235
-214 59 1 159 57 159 89 0 5 6 12 13 15 30 11 46 157 23 209 -6 12 4 27 35 57
l42 39 46 -51 c25 -29 65 -72 88 -96 l41 -43 -15 -37 c-20 -45 -24 -178 -7
-240 16 -58 51 -131 64 -131 6 0 10 -5 10 -12 0 -31 137 -119 206 -133 38 -7
131 -7 168 0 56 11 138 58 184 104 45 46 108 163 97 181 -4 6 -2 10 3 10 16 0
9 191 -8 220 -8 14 -15 30 -16 37 -1 6 -16 32 -33 57 -64 92 -183 157 -296
160 -57 2 -148 -16 -170 -35 -14 -10 -35 10 -235 231 -41 45 -99 108 -129 139
-29 31 -76 82 -105 115 l-51 58 -1 122 c-1 66 -2 129 -3 138 -1 12 -23 24 -78
41 -101 32 -143 41 -144 30z m164 -994 c24 -30 22 -73 -7 -100 -30 -29 -60
-33 -101 -13 -59 28 -57 110 4 133 36 14 83 5 104 -20z m788 -104 c15 -4 41
-21 58 -39 60 -62 47 -152 -29 -202 -93 -62 -215 -2 -225 111 -5 49 46 115
100 131 22 7 47 11 55 9 8 -2 27 -7 41 -10z"/>
<path d="M2337 3067 c-34 -11 -86 -35 -116 -55 -274 -182 -240 -615 60 -754
l69 -32 0 -884 c0 -487 1 -887 3 -889 16 -15 217 -20 226 -5 3 6 6 411 5 901
0 515 3 891 8 891 49 0 203 124 235 190 50 101 65 197 49 305 -8 50 -36 126
-53 143 -7 7 -13 17 -13 21 0 5 -23 31 -52 60 -51 51 -145 105 -203 116 -67
14 -158 10 -218 -8z m194 -247 c34 -11 74 -46 98 -85 23 -39 23 -144 1 -165
-3 -3 -13 -17 -22 -31 -19 -30 -94 -70 -135 -72 -31 -1 -95 12 -103 22 -3 3
-14 11 -25 17 -39 21 -76 90 -77 143 -1 132 126 214 263 171z"/>
<path d="M1460 2928 c-107 -17 -194 -80 -240 -174 -20 -40 -24 -65 -24 -139
-1 -79 3 -97 27 -144 28 -54 86 -121 106 -121 6 0 11 -4 11 -9 0 -8 30 -21 55
-25 6 -1 11 -111 13 -301 5 -496 5 -498 22 -516 8 -9 44 -49 80 -90 36 -40 76
-86 90 -100 14 -14 58 -64 99 -110 41 -46 87 -96 102 -111 l26 -28 -4 -254
c-5 -240 -4 -254 14 -260 10 -3 21 -6 26 -6 4 0 22 -6 41 -14 18 -7 51 -17 74
-21 l41 -7 1 209 c1 114 3 261 5 325 l3 118 -50 57 c-28 32 -55 63 -62 68 -9
8 -108 118 -189 211 -9 11 -40 45 -67 74 -28 30 -50 57 -51 60 0 3 -1 160 -3
350 l-2 345 37 18 c74 35 131 113 153 208 23 96 2 204 -50 264 -14 17 -31 37
-38 46 -15 21 -144 82 -160 76 -8 -3 -17 -2 -22 2 -5 4 -34 4 -64 -1z m98
-236 c20 -13 52 -61 52 -77 0 -27 -64 -104 -77 -92 -3 4 -11 3 -18 -3 -21 -17
-84 8 -105 43 -36 58 -23 99 40 134 37 21 71 19 108 -5z"/>
<path d="M3314 2901 c-59 -28 -121 -78 -116 -93 1 -4 -2 -8 -8 -8 -5 0 -10 -6
-10 -14 0 -8 -4 -16 -10 -18 -19 -6 -43 -130 -36 -188 12 -108 82 -211 170
-251 l28 -13 -3 -350 -3 -350 -30 -35 c-17 -20 -38 -43 -46 -51 -8 -8 -49 -53
-90 -100 -41 -47 -85 -96 -98 -110 -13 -14 -52 -56 -87 -95 l-65 -70 5 -329
c2 -181 7 -331 10 -334 3 -3 26 0 53 6 26 7 55 14 65 17 42 10 62 18 68 28 4
5 5 123 2 262 -5 239 -4 253 14 271 10 10 50 55 88 99 39 44 79 89 90 100 11
12 56 61 100 110 43 50 87 98 97 108 10 10 18 19 19 20 0 1 2 178 5 392 3 215
7 395 9 401 2 6 15 14 29 18 43 11 112 74 143 132 69 126 44 293 -59 391 -58
55 -114 77 -199 80 -65 2 -84 -2 -135 -26z m179 -203 c33 -16 57 -64 50 -100
-14 -70 -117 -107 -170 -60 -52 45 -55 88 -9 136 37 39 78 47 129 24z"/>
</g>
</svg>
